# xmcd CD database file
#
# Track frame offsets:
#	150
#	19442
#	34887
#	52062
#	67400
#	80522
#	97642
#	112677
#	128637
#	145997
#	161567
#	175132
#	190497
#	208107
#
# Disc length: 2958 seconds
#
# Revision: 3
# Processed by: cddbd v1.5.2PL0 Copyright (c) Steve Scherf et al.
# Submitted via: CDex 1.70beta2
#
DISCID=c70b8c0e
DTITLE=Rod Stewart - The Great American Songbook 1
DYEAR=2002
DGENRE=Jazz
TTITLE0=Rod Stewart and Dave Koz - You Go To My Head
TTITLE1=Rod Stewart and Arturo Sandoval - They Can't Take That Away From Me
TTITLE2=Rod Stewart - The Way You Look Tonight
TTITLE3=Rod Stewart and Michael Brecker - It Had To Be You
TTITLE4=Rod Stewart and Arturo Sandoval - That Old Feeling
TTITLE5=Rod Stewart and Dave Koz - These Foolish Things
TTITLE6=Rod Stewart - The Very Thought of You
TTITLE7=Rod Stewart and Arturo Sandoval - Moonglow
TTITLE8=Rod Stewart - I'll Be Seeing You
TTITLE9=Rod Stewart and Dave Koz - Every Time We Say Goodbye
TTITLE10=Rod Stewart - The Nearness of You
TTITLE11=Rod Stewart - For All We Know
TTITLE12=Rod Stewart - We'll Be Together Again
TTITLE13=Rod Stewart - That's All
EXTD=YEAR: 2002
EXTT0=
EXTT1=
EXTT2=
EXTT3=
EXTT4=
EXTT5=
EXTT6=
EXTT7=
EXTT8=
EXTT9=
EXTT10=
EXTT11=
EXTT12=
EXTT13=
PLAYORDER=
